<svg xmlns="http://www.w3.org/2000/svg" viewBox="0 0 760 220" role="img" aria-labelledby="title desc">
  <title id="title">CharmNest placeholder logo</title>
  <desc id="desc">A pink CharmNest wordmark with a bracelet heart and the tagline Little charms. Big vibes.</desc>
  <defs>
    <linearGradient id="pink" x1="0" y1="0" x2="1" y2="1"><stop stop-color="#ff5ba4"/><stop offset="1" stop-color="#ff91c2"/></linearGradient>
  </defs>
  <rect width="760" height="220" rx="36" fill="#fff7fb"/>
  <g transform="translate(34 32)">
    <path d="M72 34C49 4 5 21 10 60c5 39 62 69 62 69s57-30 62-69c5-39-39-56-62-26Z" fill="none" stroke="url(#pink)" stroke-width="12" stroke-linecap="round"/>
    <circle cx="31" cy="47" r="8" fill="#ffd166"/><circle cx="111" cy="47" r="8" fill="#b8f2e6"/><circle cx="72" cy="119" r="8" fill="#d8b4fe"/>
  </g>
  <text x="175" y="104" font-family="Trebuchet MS, Arial, sans-serif" font-size="76" font-weight="800" fill="#5a2143">Charm<tspan fill="#ff5ba4">Nest</tspan></text>
  <text x="181" y="153" font-family="Trebuchet MS, Arial, sans-serif" font-size="27" font-weight="700" letter-spacing="1.2" fill="#a63b75">Little charms. Big vibes.</text>
  <path d="M676 47l7 17 17 7-17 7-7 17-7-17-17-7 17-7Z" fill="#ffd166"/>
</svg>
